# xmcd CD database file
#
# Track frame offsets:
#	150
#	25257
#	48830
#	69142
#	91740
#	107902
#	132490
#	152475
#	170485
#	189482
#	206647
#	229057
#	249912
#	273495
#
# Disc length: 3969 seconds
#
# Revision: 3
# Processed by: cddbd v1.5.1PL0 Copyright (c) Steve Scherf et al.
# Submitted via: CDex 1.40Release
#
DISCID=b40f7f0e
DTITLE=Steven Curtis Chapman - Greatest Hits - Steven Curtis Chapman
DYEAR=1997
DGENRE=Christian Rock
TTITLE0=Not Home Yet
TTITLE1=More To This Life
TTITLE2=The Great Adventure
TTITLE3=That's Paradise
TTITLE4=His Eyes
TTITLE5=For the Sake of the Call
TTITLE6=I Will Be Here
TTITLE7=I Am Found in You
TTITLE8=Heaven in the Real World
TTITLE9=No Better Place
TTITLE10=Hiding Place
TTITLE11=His Strength is Perfect
TTITLE12=Lord of the Dance
TTITLE13=The Walk
EXTD=YEAR: 1997
EXTT0=
EXTT1=
EXTT2=
EXTT3=
EXTT4=
EXTT5=
EXTT6=
EXTT7=
EXTT8=
EXTT9=
EXTT10=
EXTT11=
EXTT12=
EXTT13=
PLAYORDER=
